G04 MADE WITH FRITZING*
G04 WWW.FRITZING.ORG*
G04 DOUBLE SIDED*
G04 HOLES PLATED*
G04 CONTOUR ON CENTER OF CONTOUR VECTOR*
%ASAXBY*%
%FSLAX23Y23*%
%MOIN*%
%OFA0B0*%
%SFA1.0B1.0*%
%ADD10C,0.077444*%
%ADD11C,0.075000*%
%ADD12C,0.062992*%
%ADD13R,0.062992X0.062992*%
%ADD14C,0.024000*%
%LNCOPPER1*%
G90*
G70*
G54D10*
X329Y1087D03*
X429Y1087D03*
X529Y1087D03*
X629Y1087D03*
X729Y1087D03*
X829Y1087D03*
X929Y1087D03*
X1029Y1087D03*
X1129Y1086D03*
X1229Y1087D03*
X1329Y1087D03*
X1429Y1087D03*
X1529Y1087D03*
X1629Y1087D03*
X1729Y1087D03*
X1829Y1087D03*
X1929Y1087D03*
X2029Y1087D03*
X2130Y1087D03*
X2229Y1087D03*
X2229Y1187D03*
X2130Y1187D03*
X2029Y1187D03*
X1929Y1187D03*
X1829Y1187D03*
X1729Y1187D03*
X1629Y1187D03*
X1529Y1187D03*
X1429Y1187D03*
X1329Y1187D03*
X1229Y1187D03*
X1129Y1187D03*
X1029Y1187D03*
X929Y1187D03*
X829Y1187D03*
X729Y1187D03*
X629Y1187D03*
X529Y1187D03*
X429Y1187D03*
X329Y1187D03*
G54D11*
X329Y487D03*
X329Y87D03*
G54D12*
X229Y687D03*
X229Y786D03*
G54D13*
X229Y687D03*
G54D14*
X429Y1057D02*
X428Y786D01*
D02*
X428Y786D02*
X381Y627D01*
D02*
X381Y627D02*
X339Y514D01*
G04 End of Copper1*
M02*