; NON-PLATED HOLES START AT T1
; THROUGH (PLATED) HOLES START AT T100
M48
INCH
T100C0.031497
T101C0.038556
T102C0.035000
%
T100
X002292Y006873
X002292Y007857
T101
X010292Y011873
X009292Y010873
X021295Y010873
X006292Y010873
X010292Y010873
X003292Y011873
X004292Y011873
X006292Y011873
X012291Y011873
X020291Y010873
X011292Y011873
X008292Y010873
X013292Y011873
X013292Y010873
X015292Y010873
X017292Y011873
X016292Y010873
X022292Y010873
X015292Y011873
X012292Y010873
X014292Y010873
X007292Y010873
X007292Y011873
X018292Y011873
X019288Y011873
X003291Y010873
X009292Y011873
X019288Y010873
X004292Y010873
X016292Y011873
X020291Y011873
X022292Y011873
X011292Y010858
X005292Y010873
X008292Y011873
X005292Y011873
X018292Y010873
X017292Y010873
X014292Y011873
X021295Y011873
T102
X003292Y004873
X003292Y000873
T00
M30
